<svg xmlns="http://www.w3.org/2000/svg" xmlns:xlink="http://www.w3.org/1999/xlink" width="50" zoomAndPan="magnify" viewBox="0 0 37.5 37.499999" height="50" preserveAspectRatio="xMidYMid meet" version="1.0"><defs><clipPath id="1952ee6092"><path d="M 5 7 L 32 7 L 32 37.007812 L 5 37.007812 Z M 5 7 " clip-rule="nonzero"/></clipPath><clipPath id="3e168ef3e9"><path d="M 3.203125 4 L 33.953125 4 L 33.953125 7 L 3.203125 7 Z M 3.203125 4 " clip-rule="nonzero"/></clipPath></defs><g clip-path="url(#1952ee6092)"><path fill="#000000" d="M 7.019531 37.484375 L 30.136719 37.484375 L 31.933594 7.988281 L 5.226562 7.988281 Z M 24.886719 11.175781 C 24.886719 10.738281 25.238281 10.378906 25.675781 10.378906 C 26.109375 10.378906 26.464844 10.738281 26.464844 11.175781 L 26.464844 34.292969 C 26.464844 34.734375 26.109375 35.089844 25.675781 35.089844 C 25.238281 35.089844 24.886719 34.734375 24.886719 34.292969 Z M 20.15625 11.175781 C 20.15625 10.738281 20.507812 10.378906 20.945312 10.378906 C 21.378906 10.378906 21.734375 10.738281 21.734375 11.175781 L 21.734375 34.292969 C 21.734375 34.734375 21.378906 35.089844 20.945312 35.089844 C 20.507812 35.089844 20.15625 34.734375 20.15625 34.292969 Z M 15.425781 11.175781 C 15.425781 10.738281 15.777344 10.378906 16.214844 10.378906 C 16.648438 10.378906 17.003906 10.738281 17.003906 11.175781 L 17.003906 34.292969 C 17.003906 34.734375 16.648438 35.089844 16.214844 35.089844 C 15.777344 35.089844 15.425781 34.734375 15.425781 34.292969 Z M 10.695312 11.175781 C 10.695312 10.738281 11.046875 10.378906 11.484375 10.378906 C 11.917969 10.378906 12.273438 10.738281 12.273438 11.175781 L 12.273438 34.292969 C 12.273438 34.734375 11.917969 35.089844 11.484375 35.089844 C 11.046875 35.089844 10.695312 34.734375 10.695312 34.292969 Z M 10.695312 11.175781 " fill-opacity="1" fill-rule="nonzero"/></g><g clip-path="url(#3e168ef3e9)"><path fill="#000000" d="M 3.203125 4.003906 L 3.203125 6.394531 C 4.199219 6.394531 32.617188 6.394531 33.953125 6.394531 L 33.953125 4.003906 C 32.300781 4.003906 3.859375 4.003906 3.203125 4.003906 Z M 3.203125 4.003906 " fill-opacity="1" fill-rule="nonzero"/></g><path fill="#000000" d="M 19.367188 0.015625 L 17.792969 0.015625 C 16.324219 0.015625 15.089844 1.035156 14.738281 2.410156 L 22.421875 2.410156 C 22.070312 1.035156 20.835938 0.015625 19.367188 0.015625 Z M 19.367188 0.015625 " fill-opacity="1" fill-rule="nonzero"/></svg>